<?xml version="1.0" encoding="UTF-8"?>
<svg id="Capa_1" data-name="Capa 1" xmlns="http://www.w3.org/2000/svg" viewBox="0 0 550.76 513.62">
  <defs>
    <style>
      .cls-1 {
        fill: #c81e64;
      }

      .cls-2 {
        fill: teal;
      }
    </style>
  </defs>
  <path class="cls-2" d="m323.93,109.98c.4,5.88-3.11,10.92-7.33,12.06-16.86,4.56-33.7,9.17-50.58,13.67-10.43,2.78-20.9,5.45-31.38,8.07-2.21.55-3.32,1.48-2.38,3.76,4.62,11.13,6.36,23.05,9.59,34.55,5.22,18.61,10.35,37.25,15.37,55.92,4.98,18.52,9.72,37.1,14.67,55.62,3.09,11.56,6.46,23.04,9.56,34.59,4.2,15.64,8.19,31.33,12.39,46.97,5.1,19,10.46,37.94,15.42,56.98,2.68,10.3,5.41,20.58,8.25,30.84,1.93,6.98-3.34,13.21-10.41,14.75-11.04,2.41-21.87,5.73-32.81,8.62-17.06,4.51-34.11,9.04-51.2,13.45-4.65,1.2-9.93-1.97-11.49-6.57-4.4-13.02-7.18-26.48-10.9-39.68-2.84-10.06-6.28-19.99-8.39-30.2-2.1-10.14-5.23-19.98-7.73-30-4.75-18.99-10.29-37.78-15.34-56.7-5.26-19.68-10.02-39.49-15.58-59.08-4.91-17.3-9.29-34.72-13.89-52.1-4.25-16.05-8.74-32.04-12.92-48.11-.88-3.37-1.93-4.04-5.44-3.04-14.33,4.07-28.8,7.66-43.19,11.51-11.38,3.04-22.74,6.15-34.08,9.31-8.27,2.31-14.21-1.19-16.36-9.41-4.61-17.62-9.01-35.32-14.23-52.77C8.8,117.14,5.57,100.86.07,85.21c-.82-2.35,5.36-10.01,8.62-10.9,15.28-4.17,30.59-8.2,45.85-12.44,11.73-3.26,23.43-6.82,35.2-9.69,33.89-8.25,67.32-18.17,101.14-26.68,14.03-3.53,27.94-7.53,41.9-11.33,14.75-4.01,29.4-8.5,44.32-11.74,4.01-.87,7.88-4.01,13.15-1.43,5.94,2.92,6.78,8.03,8.18,12.94,3.15,11.02,5.58,22.25,8.58,33.31,5.35,19.76,10.92,39.45,16.36,59.19.44,1.59.52,3.27.56,3.55Z"/>
  <path class="cls-1" d="m399.76.79c6.2,1.57,13.56,3.36,20.86,5.31,14.22,3.8,28.4,7.72,42.61,11.54,7.92,2.13,15.88,4.14,23.8,6.27,4.57,1.23,7.82,6.93,6.85,11.74-4.36,21.62-11.02,42.64-16.61,63.94-6.5,24.79-13.05,49.57-19.65,74.34-5.93,22.23-11.99,44.42-17.94,66.64-6.42,23.95-12.76,47.92-19.17,71.87-3.53,13.16-6.89,26.37-10.88,39.39-1.29,4.21.25,5.02,3.56,5.86,13.82,3.5,27.62,7.09,41.4,10.73,21.72,5.75,43.43,11.56,65.14,17.38,8.39,2.25,16.75,4.57,25.12,6.9,3.6,1.01,6.83,8.17,5.66,12.49-6.85,25.35-13.75,50.68-20.56,76.04-2.17,8.06-3.92,16.24-6.26,24.25-1.88,6.43-7.58,9.33-14.29,7.66-11.44-2.85-22.87-5.72-34.25-8.77-12.84-3.44-25.62-7.13-38.45-10.62-20.9-5.68-41.81-11.28-62.72-16.91-13.84-3.72-27.66-7.51-41.55-11.07-4.1-1.05-5.82-3-6.94-7.38-6.76-26.3-14.12-52.44-21.2-78.65-2.42-8.95-4.37-18.01-7.34-26.82-1.27-3.76.28-7.52,1.24-11.16,6.28-23.66,12.59-47.31,18.98-70.94,7.66-28.34,15.45-56.63,22.76-85.06,6.59-25.59,13.97-50.98,20.82-76.51,5.84-21.78,11.37-43.65,17.13-65.45,3.22-12.19,6.61-24.33,9.94-36.48.84-3.05,6.65-6.57,11.93-6.56Z"/>
</svg>